<?xml version="1.0" encoding="utf-8"?>
<!-- Generator: Adobe Illustrator 18.0.0, SVG Export Plug-In . SVG Version: 6.00 Build 0)  -->
<!DOCTYPE svg PUBLIC "-//W3C//DTD SVG 1.1//EN" "http://www.w3.org/Graphics/SVG/1.1/DTD/svg11.dtd">
<svg version="1.1" id="Layer_1" xmlns="http://www.w3.org/2000/svg" xmlns:xlink="http://www.w3.org/1999/xlink" x="0px" y="0px"
	 viewBox="0 0 1200 300" style="enable-background:new 0 0 1200 300;" xml:space="preserve">
<style type="text/css">
	.st0{fill:#FFBE1A;}
	.st1{fill:#666666;}
</style>
<path class="st0" d="M76.5,202.4l26.9-32.1c16.4,12.5,35.1,17.6,52.7,17.6c9,0,12.9-2.4,12.9-6.5v-0.4c0-4.3-4.7-6.7-20.9-9.9
	c-33.8-6.9-63.5-16.6-63.5-48.4v-0.4c0-28.6,22.4-50.8,63.9-50.8c29.1,0,50.6,6.9,68,20.7l-24.5,34c-14.2-10.3-31.2-14.8-45.2-14.8
	c-7.5,0-11,2.6-11,6.2v0.4c0,4.1,4.1,6.7,20,9.7c38.5,7.1,64.3,18.3,64.3,48.6v0.4c0,31.6-26,51-66.5,51
	C123.2,227.8,95.6,219.2,76.5,202.4z"/>
<path class="st0" d="M275.3,117H231V74.4h139V117h-44.3v108h-50.4V117z"/>
<path class="st0" d="M385.4,74.4H459c26.7,0,43.7,6.7,54.2,17.2c9,9,13.8,20.2,13.8,35.7v0.4c0,22-11.4,37.2-29.7,46.1l31.5,51.2
	h-57.5l-24.8-43h-10.8v43h-50.4V74.4z M457.5,146c12.1,0,19.4-5.4,19.4-14.6v-0.4c0-9.7-7.5-14.4-19.2-14.4h-21.9V146H457.5z"/>
<path class="st0" d="M607.4,74.4h152.4v41.3h-74.7v15.3h69.3v36.4h-69.3v16.4h75.7V225H636.7v-20.2H590L579.9,225h-47L607.4,74.4z
	 M636.7,169v-54.9h-1.3L607.9,169H636.7z"/>
<path class="st0" d="M853.5,117h-44.3V74.4h139V117h-44.3v108h-50.4V117z"/>
<path class="st0" d="M958.8,150.1v-0.4c0-43.7,35.9-78.5,82.4-78.5c46.5,0,82,34.4,82,78.1v0.4c0,43.7-35.9,78.5-82.4,78.5
	C994.3,228.2,958.8,193.8,958.8,150.1z M1072.4,150.1v-0.4c0-17.9-12.3-34-31.6-34c-19.2,0-31.2,15.9-31.2,33.6v0.4
	c0,17.9,12.3,34,31.6,34C1060.4,183.7,1072.4,167.7,1072.4,150.1z"/>
<circle class="st1" cx="807.1" cy="200.2" r="28"/>
</svg>
